# xmcd CD database file
# Copyright (C) 1993-1998 Ti Kan
#
# Track frame offsets:
#	150
#	32575
#	48750
#	69125
#	103375
#	127400
#	158512
#	189050
#	208375
#	248400
#	269350
#	302575
#
# Disc length: 4439 seconds
#
# Revision: 1
# Processed by: cddbd v1.4b41PL1 Copyright (c) Steve Scherf et al.
# Submitted via: CDValet v3.31 - Copyright (c) 1997 Greg Leichner
#
DISCID=9d11550c
DTITLE=Diverse - The Original Jazz Classics
DYEAR=1900
DGENRE=
TTITLE0=Things Are Getting Better
TTITLE1=How High The Moon
TTITLE2=Jumpin´ At The Woodside
TTITLE3=Afro Jaws
TTITLE4=There Is No Greater Love
TTITLE5=Latin America Sunshine
TTITLE6=Waltz For Debbie
TTITLE7=I Ain´t Got Nothing But The Blues
TTITLE8=Birks Work
TTITLE9=My Funny Valentine
TTITLE10=Slippery
TTITLE11=Caravan
EXTD=
EXTT0=
EXTT1=
EXTT2=
EXTT3=
EXTT4=
EXTT5=
EXTT6=
EXTT7=
EXTT8=
EXTT9=
EXTT10=
EXTT11=
PLAYORDER=
